<?xml version="1.0" standalone="no"?>
<!DOCTYPE svg PUBLIC "-//W3C//DTD SVG 20010904//EN"
 "http://www.w3.org/TR/2001/REC-SVG-20010904/DTD/svg10.dtd">
<svg version="1.0" xmlns="http://www.w3.org/2000/svg"
 width="1331.000000pt" height="1331.000000pt" viewBox="0 0 1331.000000 1331.000000"
 preserveAspectRatio="xMidYMid meet">
<metadata>
Created by potrace 1.11, written by Peter Selinger 2001-2013
</metadata>
<g transform="translate(0.000000,1331.000000) scale(0.100000,-0.100000)"
fill="#000000" stroke="none">
<path d="M2545 13301 c-6 -5 -62 -14 -125 -20 -158 -16 -240 -27 -275 -39 -16
-5 -66 -18 -110 -28 -72 -16 -108 -27 -170 -53 -11 -5 -46 -17 -77 -26 -32 -9
-60 -21 -64 -26 -3 -5 -14 -9 -24 -9 -22 0 -317 -145 -345 -170 -11 -10 -42
-31 -70 -46 -295 -163 -696 -564 -859 -859 -15 -28 -36 -59 -46 -70 -25 -28
-170 -323 -170 -345 0 -10 -4 -21 -9 -24 -5 -4 -17 -32 -26 -64 -9 -31 -21
-66 -26 -77 -26 -62 -37 -98 -53 -170 -10 -44 -23 -93 -28 -110 -12 -35 -23
-117 -38 -270 -6 -60 -15 -120 -20 -133 -14 -31 -14 -8183 0 -8214 5 -13 14
-72 20 -133 15 -153 26 -235 38 -270 5 -16 18 -66 28 -110 16 -72 27 -108 53
-170 5 -11 17 -46 26 -77 9 -32 21 -60 26 -64 5 -3 9 -14 9 -24 0 -22 145
-317 170 -345 10 -11 31 -42 46 -70 163 -295 564 -696 859 -859 28 -15 59 -36
70 -46 28 -25 323 -170 345 -170 10 0 21 -4 24 -9 4 -5 32 -17 64 -26 31 -9
66 -21 77 -26 62 -26 98 -37 170 -53 44 -10 94 -23 110 -28 35 -12 117 -23
275 -39 63 -6 119 -15 124 -20 15 -14 8333 -12 8338 2 2 7 40 16 83 20 154 17
200 25 215 34 8 5 32 12 55 16 22 5 63 12 91 18 29 5 60 14 70 19 38 19 90 39
129 51 69 21 190 73 255 110 8 5 42 21 75 37 33 15 74 37 90 49 17 12 37 25
45 28 8 4 35 21 60 37 25 16 62 38 82 50 20 11 39 24 43 30 3 6 39 34 78 63
93 70 128 100 256 228 128 128 158 163 228 256 29 39 57 75 63 78 6 4 19 23
30 43 12 20 34 57 50 82 16 25 33 52 37 60 3 8 16 29 28 45 12 17 34 57 49 90
16 33 32 67 37 75 36 64 69 136 69 151 0 10 4 20 9 23 5 4 17 32 26 64 16 53
34 99 57 146 5 10 14 41 19 70 6 28 13 69 18 91 4 23 11 47 16 55 9 15 17 61
33 213 5 43 14 83 21 90 16 16 16 8428 0 8444 -7 7 -16 47 -21 90 -16 152 -24
198 -33 213 -5 8 -12 32 -16 55 -5 22 -12 63 -18 91 -5 29 -14 60 -19 70 -23
47 -41 93 -57 146 -9 32 -21 60 -26 64 -5 3 -9 13 -9 23 0 15 -33 87 -69 151
-5 8 -21 42 -37 75 -15 33 -37 74 -49 90 -12 17 -25 37 -28 45 -4 8 -21 35
-37 60 -16 25 -38 62 -50 82 -11 20 -24 39 -30 43 -6 3 -34 39 -63 78 -70 93
-100 128 -228 256 -128 128 -163 158 -256 228 -39 29 -75 57 -78 63 -4 6 -23
19 -43 30 -20 12 -57 34 -82 50 -25 16 -52 33 -60 37 -8 3 -28 16 -45 28 -16
12 -57 34 -90 49 -33 16 -67 32 -75 37 -65 37 -186 89 -255 110 -39 12 -91 32
-129 51 -10 5 -41 14 -70 19 -28 6 -69 13 -91 18 -23 4 -47 11 -55 16 -15 9
-61 17 -215 34 -43 4 -81 13 -83 20 -5 14 -8323 16 -8337 2z m3640 -2750 c39
-13 78 -27 88 -32 10 -6 35 -19 56 -30 48 -25 170 -143 207 -200 16 -24 31
-46 34 -49 4 -3 16 -25 28 -50 39 -82 64 -100 82 -57 11 25 15 32 87 142 44
69 175 205 198 205 3 0 23 11 43 25 20 14 45 25 54 25 10 0 26 4 36 9 98 52
303 53 447 1 84 -30 147 -72 230 -155 49 -49 98 -108 109 -130 10 -22 23 -49
28 -59 63 -119 68 -383 10 -509 -38 -82 -53 -112 -72 -142 -22 -36 -37 -61
-79 -137 -17 -32 -47 -82 -66 -112 -19 -30 -35 -59 -35 -65 0 -5 -6 -16 -12
-23 -7 -7 -21 -29 -31 -48 -9 -19 -26 -48 -37 -65 -11 -16 -29 -48 -40 -70
-51 -96 -64 -119 -147 -251 -7 -10 -20 -35 -30 -54 -9 -19 -29 -53 -43 -75
-14 -22 -34 -56 -44 -75 -40 -80 -63 -120 -89 -153 -15 -20 -27 -40 -27 -46 0
-6 -16 -35 -35 -65 -19 -30 -35 -60 -35 -67 0 -6 -14 -28 -30 -49 -17 -21 -37
-53 -45 -72 -9 -18 -21 -42 -28 -53 -52 -84 -84 -138 -119 -204 -23 -42 -46
-83 -53 -91 -7 -8 -15 -22 -19 -30 -3 -8 -20 -37 -36 -65 -17 -27 -39 -68 -51
-90 -29 -57 -82 -150 -95 -166 -6 -8 -22 -34 -36 -59 -66 -121 -93 -168 -115
-202 -12 -21 -23 -42 -23 -48 0 -5 -4 -10 -8 -10 -5 0 -16 -19 -26 -42 -10
-24 -28 -56 -40 -73 -20 -27 -46 -71 -114 -195 -13 -25 -30 -52 -37 -60 -7 -8
-24 -37 -37 -65 -33 -65 -46 -88 -88 -155 -49 -78 -54 -87 -91 -157 -17 -35
-35 -63 -39 -63 -4 0 -15 -19 -26 -42 -10 -24 -26 -54 -35 -68 -22 -34 -81
-135 -115 -195 -15 -27 -36 -63 -46 -80 -10 -16 -22 -39 -27 -50 -6 -11 -19
-33 -30 -50 -12 -16 -21 -36 -21 -42 0 -10 146 -13 695 -13 l695 0 14 -22 c28
-45 66 -114 81 -146 8 -19 28 -51 45 -72 16 -21 30 -43 30 -49 0 -6 16 -35 35
-65 19 -30 35 -60 35 -67 0 -6 14 -28 30 -49 17 -21 37 -53 45 -72 9 -18 20
-40 25 -48 15 -24 84 -144 134 -235 16 -27 34 -57 40 -65 7 -8 16 -22 20 -30
4 -8 20 -37 36 -65 16 -27 37 -66 47 -85 9 -19 32 -57 50 -85 18 -27 36 -59
39 -69 4 -11 13 -26 20 -34 45 -44 169 -42 -2501 -42 -2631 0 -2541 -1 -2650
39 -136 51 -283 185 -342 314 -63 134 -81 256 -59 387 24 140 28 154 40 170 7
8 23 36 36 63 13 26 60 84 104 130 88 89 149 125 288 171 l77 26 684 0 685 0
29 48 c43 71 49 82 82 144 16 32 35 63 41 70 11 13 82 136 222 386 10 18 27
45 37 60 10 15 45 74 77 132 33 57 71 125 86 150 15 25 35 61 44 80 10 19 23
42 30 50 19 23 114 192 114 202 0 5 11 24 25 42 25 32 42 61 105 180 18 32 36
64 42 70 8 10 40 64 171 296 17 30 35 64 41 75 6 11 20 34 32 50 12 17 45 75
74 130 29 55 59 107 65 115 7 8 27 42 45 75 18 33 42 74 52 90 10 17 21 37 24
45 4 8 13 22 19 30 7 8 31 50 55 93 23 44 56 102 73 131 48 78 53 86 88 154
17 34 35 62 39 62 4 0 15 17 24 39 l18 38 -51 84 c-29 46 -56 91 -61 99 -5 8
-17 31 -25 50 -9 19 -22 41 -29 50 -7 8 -25 35 -38 60 -73 133 -92 166 -103
180 -7 8 -31 51 -55 95 -23 44 -50 91 -59 105 -31 48 -41 65 -50 85 -5 11 -18
41 -29 65 -30 67 -40 106 -52 202 -13 110 7 249 47 328 7 14 13 29 13 33 0 22
87 132 151 190 76 70 138 106 229 133 30 9 66 20 80 25 47 16 239 4 315 -20z
m1569 -2371 c7 -14 26 -50 42 -80 16 -30 41 -73 56 -95 14 -22 52 -87 84 -144
33 -57 70 -123 84 -146 14 -24 38 -68 54 -97 15 -29 34 -60 41 -68 7 -8 32
-51 55 -95 23 -44 48 -87 55 -95 6 -8 15 -22 19 -30 4 -8 20 -37 36 -65 16
-27 37 -66 46 -85 10 -19 31 -53 46 -74 15 -21 28 -42 28 -46 0 -9 98 -180
114 -200 7 -8 20 -31 30 -50 26 -53 116 -207 147 -252 11 -15 19 -31 19 -36 0
-5 17 -35 38 -68 21 -32 46 -75 55 -94 27 -52 80 -146 93 -161 6 -8 31 -50 54
-94 23 -44 48 -87 55 -95 6 -8 15 -22 19 -30 3 -8 14 -28 24 -45 10 -16 34
-57 52 -90 18 -33 39 -68 47 -77 14 -16 70 -17 707 -20 l691 -3 60 -23 c33
-13 69 -26 80 -29 11 -4 34 -14 50 -24 17 -10 45 -26 62 -35 51 -25 176 -165
212 -235 51 -98 64 -158 65 -299 1 -140 -9 -189 -60 -295 -31 -66 -128 -181
-190 -225 -49 -36 -81 -56 -104 -66 -129 -58 -180 -64 -512 -64 -158 0 -289
-4 -292 -8 -3 -5 5 -24 18 -43 12 -19 49 -81 82 -138 32 -57 71 -124 86 -150
15 -25 35 -62 44 -81 10 -19 28 -48 39 -65 12 -16 39 -61 60 -100 22 -38 49
-88 62 -110 59 -104 88 -176 102 -251 22 -121 9 -249 -38 -373 -11 -29 -27
-63 -36 -75 -8 -11 -26 -37 -39 -56 -46 -68 -184 -190 -214 -190 -7 0 -23 -5
-35 -12 -38 -21 -88 -36 -180 -54 -84 -16 -94 -16 -185 0 -124 23 -165 37
-238 80 -100 59 -204 170 -254 271 -8 17 -24 44 -36 60 -12 17 -41 66 -64 110
-24 44 -55 98 -69 120 -25 39 -35 56 -82 145 -14 25 -36 63 -51 85 -14 22 -52
87 -84 144 -33 57 -70 123 -84 146 -14 24 -36 63 -48 87 -13 24 -39 66 -58 95
-19 28 -34 54 -34 58 0 4 -28 55 -62 113 -35 59 -68 116 -75 127 -6 11 -20 36
-29 55 -10 19 -31 53 -46 74 -15 21 -28 42 -28 46 0 9 -98 180 -114 200 -7 8
-20 31 -30 50 -9 19 -29 56 -44 82 -84 145 -191 328 -214 368 -15 25 -34 61
-43 79 -9 19 -26 49 -39 65 -12 17 -29 45 -38 61 -44 85 -82 153 -102 180 -12
17 -30 46 -39 65 -10 19 -22 42 -27 50 -32 50 -140 239 -140 244 0 5 -50 89
-110 186 -5 8 -17 31 -27 50 -9 19 -27 49 -38 65 -12 17 -44 71 -70 120 -42
78 -69 123 -122 210 -7 11 -20 36 -30 55 -9 19 -29 51 -45 71 -15 20 -28 41
-28 45 0 5 -16 35 -35 67 -41 69 -44 104 -10 157 14 22 25 42 25 45 0 3 18 34
40 69 22 35 40 65 40 68 0 8 100 181 114 198 7 8 20 31 30 50 9 19 29 56 44
82 15 25 51 88 81 140 59 102 136 234 151 258 5 8 16 30 25 48 8 19 28 51 45
72 16 21 30 43 30 49 0 6 19 41 42 77 l41 66 19 -23 c10 -13 24 -35 32 -49z
m-3154 -4260 c0 -11 -36 -78 -54 -100 -16 -19 -116 -200 -116 -210 0 -4 -6
-13 -14 -19 -8 -7 -27 -38 -43 -69 -37 -72 -56 -106 -64 -112 -3 -3 -12 -17
-20 -32 -21 -41 -155 -274 -187 -325 -19 -31 -107 -139 -118 -146 -8 -4 -34
-25 -58 -46 -120 -104 -350 -155 -520 -116 -63 15 -83 21 -153 51 -17 8 -35
14 -40 14 -4 0 -26 16 -48 35 -22 19 -43 35 -47 35 -25 0 -178 205 -178 237 0
8 -6 24 -12 36 -22 39 -37 130 -37 227 0 119 17 199 60 282 5 10 9 23 9 29 0
5 11 25 24 42 13 18 43 69 67 114 l44 83 753 0 c479 0 752 -4 752 -10z"/>
</g>
</svg>
